<svg width="26" height="26" viewBox="0 0 26 26" fill="none" xmlns="http://www.w3.org/2000/svg">
<path d="M22.9102 16.7041C22.0625 15.2461 21.6123 13.1533 21.6123 10.6562C21.6123 8.48065 20.748 6.39415 19.2097 4.85576C17.6713 3.31738 15.5848 2.45313 13.4092 2.45312C11.2336 2.45313 9.14708 3.31738 7.60869 4.85576C6.07031 6.39415 5.20605 8.48065 5.20605 10.6562C5.20605 13.1543 4.75781 15.2461 3.91015 16.7041C3.73719 17.0015 3.6455 17.3391 3.6443 17.6832C3.6431 18.0272 3.73243 18.3655 3.90332 18.6641C4.07312 18.9628 4.31959 19.2108 4.61727 19.3825C4.91495 19.5542 5.25305 19.6433 5.59668 19.6406H9.12988C9.22678 20.7086 9.71954 21.7018 10.5114 22.425C11.3032 23.1482 12.3368 23.5492 13.4092 23.5492C14.4816 23.5492 15.5152 23.1482 16.307 22.425C17.0988 21.7018 17.5916 20.7086 17.6885 19.6406H21.2217C21.5648 19.6428 21.9023 19.5534 22.1994 19.3817C22.4965 19.2101 22.7425 18.9624 22.9121 18.6641C23.0837 18.3659 23.1739 18.0278 23.1736 17.6838C23.1732 17.3398 23.0824 17.0019 22.9102 16.7041ZM13.4092 21.2031C12.9589 21.2032 12.5225 21.0477 12.1737 20.763C11.8249 20.4783 11.5852 20.0818 11.4951 19.6406H15.3232C15.2332 20.0818 14.9935 20.4783 14.6447 20.763C14.2959 21.0477 13.8594 21.2032 13.4092 21.2031ZM6.24707 17.2969C7.11132 15.5391 7.5498 13.3066 7.5498 10.6562C7.5498 9.10225 8.16713 7.61189 9.26597 6.51305C10.3648 5.4142 11.8552 4.79688 13.4092 4.79688C14.9632 4.79688 16.4535 5.4142 17.5524 6.51305C18.6512 7.61189 19.2686 9.10225 19.2686 10.6562C19.2686 13.3057 19.7061 15.5391 20.5703 17.2969H6.24707Z" fill="#2F2F2F"/>
</svg>
