<svg width="26" height="26" viewBox="0 0 26 26" fill="none" xmlns="http://www.w3.org/2000/svg">
<path d="M13.4091 7.92185C12.4047 7.92185 11.4229 8.21968 10.5878 8.77767C9.75275 9.33566 9.10187 10.1288 8.71752 11.0567C8.33317 11.9846 8.2326 13.0056 8.42854 13.9907C8.62448 14.9757 9.10813 15.8806 9.81832 16.5908C10.5285 17.3009 11.4333 17.7846 12.4184 17.9805C13.4035 18.1765 14.4245 18.0759 15.3524 17.6916C16.2803 17.3072 17.0734 16.6563 17.6314 15.8212C18.1894 14.9861 18.4872 14.0043 18.4872 13C18.4857 11.6536 17.9502 10.3629 16.9982 9.41091C16.0462 8.45891 14.7554 7.9234 13.4091 7.92185ZM13.4091 15.7344C12.8683 15.7344 12.3396 15.574 11.89 15.2735C11.4403 14.9731 11.0898 14.546 10.8829 14.0464C10.6759 13.5467 10.6218 12.9969 10.7273 12.4665C10.8328 11.9361 11.0932 11.4489 11.4756 11.0665C11.858 10.6841 12.3452 10.4236 12.8756 10.3181C13.4061 10.2126 13.9559 10.2668 14.4555 10.4737C14.9551 10.6807 15.3822 11.0312 15.6826 11.4808C15.9831 11.9305 16.1435 12.4592 16.1435 13C16.1435 13.7252 15.8554 14.4207 15.3426 14.9335C14.8298 15.4463 14.1343 15.7344 13.4091 15.7344ZM22.3935 13.0771V12.9228L23.7607 11.2129C23.8754 11.0696 23.9549 10.9014 23.9927 10.7217C24.0306 10.5421 24.0257 10.3561 23.9784 10.1787C23.7317 9.24812 23.363 8.3543 22.8818 7.52048C22.789 7.36148 22.6602 7.22655 22.5056 7.12661C22.3511 7.02668 22.1751 6.96456 21.9921 6.94529L19.8163 6.70115L19.7079 6.59275L19.4638 4.41599C19.4444 4.23312 19.3822 4.05739 19.2822 3.90301C19.1823 3.74862 19.0475 3.61992 18.8886 3.52732C18.0547 3.04459 17.1605 2.67451 16.2294 2.42673C16.0519 2.38019 15.8659 2.376 15.6864 2.4145C15.5069 2.45301 15.339 2.53313 15.1962 2.64841L13.4862 4.0156H13.3319L11.622 2.64841C11.4787 2.53365 11.3105 2.45415 11.1308 2.41632C10.9512 2.3785 10.7652 2.3834 10.5878 2.43064C9.657 2.67889 8.76317 3.0493 7.9296 3.5322C7.77122 3.62442 7.63667 3.75251 7.53678 3.90617C7.43688 4.05983 7.37442 4.23478 7.35441 4.41697L7.11027 6.59275L7.00187 6.70115L4.82511 6.94529C4.64224 6.96471 4.46651 7.0269 4.31212 7.12682C4.15774 7.22675 4.02904 7.3616 3.93644 7.52048C3.45507 8.35456 3.0863 9.24873 2.83976 10.1797C2.79268 10.3569 2.78786 10.5427 2.82568 10.7222C2.86351 10.9016 2.94292 11.0697 3.05753 11.2129L4.42472 12.9228V13.0771L3.05753 14.7871C2.94277 14.9304 2.86327 15.0986 2.82544 15.2782C2.78761 15.4579 2.79252 15.6439 2.83976 15.8213C3.08832 16.7521 3.45905 17.646 3.9423 18.4795C4.03442 18.6377 4.16236 18.7722 4.31584 18.8721C4.46932 18.972 4.64408 19.0345 4.82609 19.0547L7.00187 19.2969L7.11027 19.4052L7.35441 21.584C7.37383 21.7668 7.43602 21.9426 7.53594 22.0969C7.63587 22.2513 7.77072 22.38 7.9296 22.4726C8.76348 22.9554 9.65766 23.3254 10.5888 23.5732C10.7663 23.6198 10.9523 23.624 11.1318 23.5854C11.3113 23.5469 11.4792 23.4668 11.622 23.3515L13.3319 21.9844H13.4862L15.1962 23.3515C15.3395 23.4663 15.5077 23.5458 15.6873 23.5836C15.867 23.6215 16.053 23.6166 16.2304 23.5693C17.1609 23.3226 18.0548 22.9538 18.8886 22.4726C19.0473 22.3806 19.1823 22.2526 19.2825 22.099C19.3828 21.9453 19.4455 21.7702 19.4657 21.5879L19.7079 19.4121L19.8163 19.3037L21.9931 19.0547C22.1754 19.0344 22.3505 18.9717 22.5042 18.8714C22.6579 18.7712 22.7858 18.6363 22.8778 18.4775C23.3606 17.6436 23.7307 16.7495 23.9784 15.8183C24.0252 15.6414 24.0298 15.4559 23.992 15.2768C23.9542 15.0978 23.875 14.93 23.7607 14.7871L22.3935 13.0771ZM20.038 12.5996C20.0536 12.8663 20.0536 13.1337 20.038 13.4004C20.0205 13.6903 20.1114 13.9764 20.2929 14.2031L21.5468 15.7705C21.4284 16.1208 21.2872 16.4631 21.1239 16.7949L19.1288 17.0166C18.84 17.0496 18.5737 17.1888 18.3818 17.4072C18.2043 17.6071 18.0152 17.7962 17.8153 17.9736C17.597 18.1656 17.4577 18.4318 17.4247 18.7207L17.204 20.7148C16.8722 20.8787 16.53 21.0206 16.1796 21.1396L14.6122 19.8847C14.4042 19.7188 14.1459 19.6285 13.8798 19.6289C13.8564 19.6289 13.8329 19.6289 13.8095 19.6289C13.5428 19.6445 13.2754 19.6445 13.0087 19.6289C12.719 19.6117 12.4331 19.7021 12.206 19.8828L10.6386 21.1377C10.2882 21.0193 9.94602 20.878 9.61417 20.7148L9.39249 18.7197C9.35947 18.4308 9.22024 18.1646 9.00187 17.9726C8.802 17.7952 8.61286 17.6061 8.43546 17.4062C8.24352 17.1879 7.97725 17.0486 7.68839 17.0156L5.69425 16.7949C5.53035 16.4631 5.38845 16.1209 5.26945 15.7705L6.52335 14.2031C6.70485 13.9764 6.79569 13.6903 6.77823 13.4004C6.76261 13.1337 6.76261 12.8663 6.77823 12.5996C6.79569 12.3097 6.70485 12.0236 6.52335 11.7968L5.2714 10.2295C5.38977 9.8791 5.53102 9.5369 5.69425 9.20505L7.68937 8.98337C7.97823 8.95035 8.24449 8.81112 8.43644 8.59275C8.61384 8.39288 8.80298 8.20374 9.00284 8.02634C9.22122 7.8344 9.36044 7.56813 9.39347 7.27927L9.61417 5.28513C9.94597 5.12124 10.2882 4.97933 10.6386 4.86033L12.206 6.11521C12.4331 6.29586 12.719 6.38628 13.0087 6.36911C13.2754 6.35349 13.5428 6.35349 13.8095 6.36911C14.0993 6.38684 14.3853 6.29636 14.6122 6.11521L16.1796 4.86033C16.53 4.97933 16.8722 5.12124 17.204 5.28513L17.4257 7.28025C17.4587 7.56911 17.5979 7.83537 17.8163 8.02732C18.0162 8.20472 18.2053 8.39386 18.3827 8.59372C18.5747 8.8121 18.8409 8.95132 19.1298 8.98435L21.1239 9.20505C21.2878 9.53685 21.4297 9.87906 21.5487 10.2295L20.2948 11.7968C20.1126 12.0233 20.0211 12.3094 20.038 12.5996Z" fill="#2F2F2F"/>
</svg>
