<svg width="22" height="22" viewBox="0 0 22 22" fill="none" xmlns="http://www.w3.org/2000/svg">
<path d="M12.9248 16.0781C12.9248 16.3872 12.8332 16.6893 12.6615 16.9462C12.4898 17.2032 12.2458 17.4034 11.9603 17.5217C11.6747 17.6399 11.3606 17.6709 11.0575 17.6106C10.7544 17.5503 10.476 17.4015 10.2575 17.183C10.0389 16.9645 9.89012 16.6861 9.82983 16.383C9.76954 16.0799 9.80049 15.7657 9.91875 15.4802C10.037 15.1947 10.2373 14.9506 10.4942 14.779C10.7512 14.6073 11.0533 14.5156 11.3623 14.5156C11.7767 14.5156 12.1741 14.6802 12.4672 14.9733C12.7602 15.2663 12.9248 15.6637 12.9248 16.0781ZM21.9092 11C21.9092 13.086 21.2906 15.1251 20.1317 16.8595C18.9728 18.594 17.3256 19.9458 15.3984 20.744C13.4712 21.5423 11.3506 21.7512 9.30472 21.3442C7.25882 20.9373 5.37955 19.9328 3.90454 18.4578C2.42954 16.9828 1.42504 15.1035 1.01809 13.0576C0.611136 11.0117 0.82 8.89108 1.61827 6.96389C2.41654 5.0367 3.76836 3.3895 5.50278 2.23059C7.23721 1.07169 9.27633 0.453125 11.3623 0.453125C14.1586 0.456227 16.8394 1.56841 18.8167 3.54566C20.7939 5.52291 21.9061 8.20375 21.9092 11ZM19.5654 11C19.5654 9.37758 19.0843 7.79159 18.183 6.44259C17.2816 5.09359 16.0004 4.04218 14.5015 3.4213C13.0026 2.80043 11.3532 2.63798 9.76196 2.9545C8.17071 3.27102 6.70905 4.05229 5.56182 5.19951C4.4146 6.34674 3.63332 7.8084 3.31681 9.39965C3.00029 10.9909 3.16274 12.6403 3.78361 14.1392C4.40449 15.6381 5.4559 16.9193 6.8049 17.8207C8.15389 18.722 9.73989 19.2031 11.3623 19.2031C13.5372 19.2008 15.6223 18.3358 17.1602 16.7979C18.6981 15.26 19.5631 13.1749 19.5654 11ZM11.3623 4.75C8.99317 4.75 7.06543 6.50195 7.06543 8.65625V9.04688C7.06543 9.35768 7.1889 9.65575 7.40867 9.87552C7.62844 10.0953 7.92651 10.2188 8.23731 10.2188C8.54811 10.2188 8.84618 10.0953 9.06595 9.87552C9.28572 9.65575 9.40918 9.35768 9.40918 9.04688V8.65625C9.40918 7.79492 10.2881 7.09375 11.3623 7.09375C12.4365 7.09375 13.3154 7.79492 13.3154 8.65625C13.3154 9.51758 12.4365 10.2188 11.3623 10.2188C11.0515 10.2188 10.7534 10.3422 10.5337 10.562C10.3139 10.7818 10.1904 11.0798 10.1904 11.3906V12.1719C10.1897 12.4614 10.2962 12.7409 10.4894 12.9566C10.6826 13.1722 10.9488 13.3088 11.2366 13.3398C11.5245 13.3709 11.8136 13.2943 12.0484 13.1248C12.2831 12.9553 12.4468 12.7049 12.5078 12.4219C14.3223 11.9648 15.6592 10.4502 15.6592 8.65625C15.6592 6.50195 13.7315 4.75 11.3623 4.75Z" fill="#2F2F2F"/>
</svg>
